<svg preserveAspectRatio="none" width="100%" height="100%" overflow="visible" style="display: block;" viewBox="0 0 32 32" fill="none" xmlns="http://www.w3.org/2000/svg">
<g id="ep:arrow-down">
<path id="Vector" d="M25.9966 10.6525L15.9998 20.3962L6.00288 10.6525C5.82433 10.4786 5.58493 10.3812 5.33569 10.3812C5.08645 10.3812 4.84706 10.4786 4.6685 10.6525C4.58157 10.7369 4.51245 10.838 4.46526 10.9496C4.41807 11.0613 4.39375 11.1812 4.39375 11.3025C4.39375 11.4237 4.41807 11.5437 4.46526 11.6553C4.51245 11.767 4.58157 11.868 4.6685 11.9525L15.3029 22.3181C15.4895 22.4994 15.7395 22.6009 15.9998 22.6009C16.26 22.6009 16.51 22.4994 16.6966 22.3181L27.331 11.9525C27.4184 11.868 27.4879 11.7667 27.5354 11.6548C27.5829 11.5428 27.6074 11.4225 27.6074 11.3009C27.6074 11.1793 27.5829 11.059 27.5354 10.947C27.4879 10.8351 27.4184 10.7338 27.331 10.6493C27.1525 10.4754 26.9131 10.3781 26.6638 10.3781C26.4146 10.3781 26.1752 10.4754 25.9966 10.6493V10.6525Z" fill="var(--fill-0, #999999)"/>
</g>
</svg>
