<svg preserveAspectRatio="none" width="100%" height="100%" overflow="visible" style="display: block;" viewBox="0 0 20 20" fill="none" xmlns="http://www.w3.org/2000/svg">
<g id="ep:arrow-down">
<path id="Vector" d="M16.248 6.6582L10 12.748L3.75195 6.6582C3.64036 6.54952 3.49074 6.48869 3.33496 6.48869C3.17918 6.48869 3.02956 6.54952 2.91797 6.6582C2.86363 6.71099 2.82044 6.77415 2.79094 6.84393C2.76145 6.91371 2.74625 6.9887 2.74625 7.06445C2.74625 7.14021 2.76145 7.2152 2.79094 7.28498C2.82044 7.35476 2.86363 7.41791 2.91797 7.4707L9.56445 13.9492C9.68111 14.0626 9.83735 14.126 10 14.126C10.1627 14.126 10.3189 14.0626 10.4355 13.9492L17.082 7.4707C17.1367 7.41788 17.1801 7.35461 17.2098 7.28465C17.2395 7.21469 17.2548 7.13947 17.2548 7.06348C17.2548 6.98748 17.2395 6.91227 17.2098 6.8423C17.1801 6.77234 17.1367 6.70907 17.082 6.65625C16.9704 6.54756 16.8208 6.48674 16.665 6.48674C16.5093 6.48674 16.3596 6.54756 16.248 6.65625V6.6582Z" fill="var(--fill-0, #666666)"/>
</g>
</svg>